<svg xmlns="http://www.w3.org/2000/svg" id="export" class="canvas" preserveAspectRatio="xMidYMid meet" style="" width="1171" height="141"><rect id="background" fill="#fff" pointer-events="all" width="1171" height="141"/><g id="origin" transform="translate(6.4, 6.4) scale(1)"><g id="clusters" class="clusters"/><g id="edge-paths" class="edge-paths" style="pointer-events: none;"><defs><marker id="arrowhead" viewBox="0 0 10 10" refX="9" refY="5" markerUnits="strokeWidth" markerWidth="8" markerHeight="6" orient="auto" style="fill: rgb(0, 0, 0);"><path d="M 0 0 L 10 5 L 0 10 L 4 5 z" style="stroke-width: 1;"/></marker><marker id="arrowhead-select" viewBox="0 0 10 10" refX="9" refY="5" markerUnits="strokeWidth" markerWidth="8" markerHeight="6" orient="auto" style="fill: rgba(220, 0, 0, 0.9);"><path d="M 0 0 L 10 5 L 0 10 L 4 5 z" style="stroke-width: 1;"/></marker><marker id="arrowhead-hover" viewBox="0 0 10 10" refX="9" refY="5" markerUnits="strokeWidth" markerWidth="8" markerHeight="6" orient="auto" style="fill: rgba(220, 0, 0, 0.9);"><path d="M 0 0 L 10 5 L 0 10 L 4 5 z" style="stroke-width: 1;"/></marker></defs><path id="edge-input_layer" class="edge-path" d="M68.2099609375,64L69.87662760416667,64C71.54329427083333,64,74.87662760416667,64,78.2099609375,64C81.54329427083333,64,84.87662760416667,64,88.2099609375,64C91.54329427083333,64,94.87662760416667,64,98.2099609375,64C101.54329427083333,64,104.87662760416667,64,106.54329427083333,64L108.2099609375,64" style="stroke: rgb(0, 0, 0); stroke-width: 1px; fill: none; marker-end: url(&quot;#arrowhead&quot;);"/><path id="edge-lstm" class="edge-path" d="M241.4912109375,64L243.15787760416666,64C244.82454427083334,64,248.15787760416666,64,251.4912109375,64C254.82454427083334,64,258.1578776041667,64,259.8245442708333,64L261.4912109375,64" style="stroke: rgb(0, 0, 0); stroke-width: 1px; fill: none; marker-end: url(&quot;#arrowhead&quot;);"/><path id="edge-dense" class="edge-path" d="M349.5693359375,64L351.2360026041667,64C352.9026692708333,64,356.2360026041667,64,359.5693359375,64C362.9026692708333,64,366.2360026041667,64,367.9026692708333,64L369.5693359375,64" style="stroke: rgb(0, 0, 0); stroke-width: 1px; fill: none; marker-end: url(&quot;#arrowhead&quot;);"/><path id="edge-batch_normalization" class="edge-path" d="M479.0380859375,64L480.7047526041667,64C482.3714192708333,64,485.7047526041667,64,489.0380859375,64C492.3714192708333,64,495.7047526041667,64,497.3714192708333,64L499.0380859375,64" style="stroke: rgb(0, 0, 0); stroke-width: 1px; fill: none; marker-end: url(&quot;#arrowhead&quot;);"/><path id="edge-dropout" class="edge-path" d="M574.0380859375,64L575.7047526041666,64C577.3714192708334,64,580.7047526041666,64,584.0380859375,64C587.3714192708334,64,590.7047526041666,64,592.3714192708334,64L594.0380859375,64" style="stroke: rgb(0, 0, 0); stroke-width: 1px; fill: none; marker-end: url(&quot;#arrowhead&quot;);"/><path id="edge-dense_1" class="edge-path" d="M682.1162109375,64L683.7828776041666,64C685.4495442708334,64,688.7828776041666,64,692.1162109375,64C695.4495442708334,64,698.7828776041666,64,700.4495442708334,64L702.1162109375,64" style="stroke: rgb(0, 0, 0); stroke-width: 1px; fill: none; marker-end: url(&quot;#arrowhead&quot;);"/><path id="edge-dropout_1" class="edge-path" d="M777.1162109375,64L778.7828776041666,64C780.4495442708334,64,783.7828776041666,64,787.1162109375,64C790.4495442708334,64,793.7828776041666,64,795.4495442708334,64L797.1162109375,64" style="stroke: rgb(0, 0, 0); stroke-width: 1px; fill: none; marker-end: url(&quot;#arrowhead&quot;);"/><path id="edge-logits" class="edge-path" d="M885.1943359375,64L886.8610026041666,64C888.5276692708334,64,891.8610026041666,64,895.1943359375,64C898.5276692708334,64,901.8610026041666,64,903.5276692708334,64L905.1943359375,64" style="stroke: rgb(0, 0, 0); stroke-width: 1px; fill: none; marker-end: url(&quot;#arrowhead&quot;);"/><path id="edge-softmax_temperature" class="edge-path" d="M1020.10693359375,64L1021.7736002604166,64C1023.4402669270834,64,1026.7736002604167,64,1030.10693359375,64C1033.4402669270833,64,1036.7736002604167,64,1038.4402669270833,64L1040.10693359375,64" style="stroke: rgb(0, 0, 0); stroke-width: 1px; fill: none; marker-end: url(&quot;#arrowhead&quot;);"/></g><g id="edge-labels" class="edge-labels"/><g id="nodes" class="nodes"><g id="input-name-input_layer" class="node graph-input" style="" transform="translate(0,52.5)"><g class="node-item graph-item-input" transform="translate(0,0)"><path d="M5,0h58.2099609375a5,5 0 0 1 5,5v13a5,5 0 0 1 -5,5h-58.2099609375a5,5 0 0 1 -5,-5v-13a5,5 0 0 1 5,-5z" style="stroke: rgb(0, 0, 0); fill: rgb(238, 238, 238); stroke-width: 0;"/><text x="6" y="16" style="font-family: -apple-system, BlinkMacSystemFont, &quot;Segoe WPC&quot;, &quot;Segoe UI&quot;, Ubuntu, &quot;Droid Sans&quot;, sans-serif, &quot;PingFang SC&quot;; font-size: 11px; text-rendering: geometricprecision; user-select: none;">input_layer</text><title>float32</title></g><path class="node node-border" d="M5,0h58.2099609375a5,5 0 0 1 5,5v13a5,5 0 0 1 -5,5h-58.2099609375a5,5 0 0 1 -5,-5v-13a5,5 0 0 1 5,-5z" style="stroke: rgb(51, 51, 51); fill: none; stroke-width: 1px;"/></g><g id="node-name-lstm" class="node graph-node" style="" transform="translate(108.2099609375,0)"><g class="node-item node-item-type node-item-type-layer" transform="translate(0,0)"><path d="M5,0h123.28125a5,5 0 0 1 5,5v18a0,0 0 0 1 0,0h-133.28125a0,0 0 0 1 0,0v-18a5,5 0 0 1 5,-5z" style="stroke: rgb(0, 0, 0); fill: rgb(51, 85, 136); stroke-width: 0;"/><text x="6" y="16" style="font-family: -apple-system, BlinkMacSystemFont, &quot;Segoe WPC&quot;, &quot;Segoe UI&quot;, Ubuntu, &quot;Droid Sans&quot;, sans-serif, &quot;PingFang SC&quot;; font-size: 11px; text-rendering: geometricprecision; user-select: none; fill: rgb(255, 255, 255);">LSTM</text><title>lstm</title></g><g class="node-argument-list" transform="translate(0,23)"><path d="M0,0h133.28125a0,0 0 0 1 0,0v62a0,0 0 0 1 0,0h-133.28125a0,0 0 0 1 0,0v-62a0,0 0 0 1 0,0z" style="stroke: rgb(0, 0, 0); fill: rgb(255, 255, 255); stroke-width: 0;"/><g class="node-argument"><rect rx="3" ry="3" x="3" y="3" width="127.28125" height="14" style="fill: transparent;"/><text xml:space="preserve" x="6" y="14" style="font-family: -apple-system, BlinkMacSystemFont, &quot;Segoe WPC&quot;, &quot;Segoe UI&quot;, Ubuntu, &quot;Droid Sans&quot;, sans-serif, &quot;PingFang SC&quot;; font-size: 9px; font-weight: normal; text-rendering: geometricprecision; user-select: none;"><tspan>recurrent_activation</tspan><tspan> = sigmoid</tspan></text></g><g class="node-argument"><rect rx="3" ry="3" x="3" y="17" width="127.28125" height="14" style="fill: transparent;"/><text xml:space="preserve" x="6" y="28" style="font-family: -apple-system, BlinkMacSystemFont, &quot;Segoe WPC&quot;, &quot;Segoe UI&quot;, Ubuntu, &quot;Droid Sans&quot;, sans-serif, &quot;PingFang SC&quot;; font-size: 9px; font-weight: normal; text-rendering: geometricprecision; user-select: none;"><tspan>seed</tspan><tspan> = </tspan></text></g><g class="node-argument"><rect rx="3" ry="3" x="3" y="31" width="127.28125" height="14" style="fill: transparent;"/><text xml:space="preserve" x="6" y="42" style="font-family: -apple-system, BlinkMacSystemFont, &quot;Segoe WPC&quot;, &quot;Segoe UI&quot;, Ubuntu, &quot;Droid Sans&quot;, sans-serif, &quot;PingFang SC&quot;; font-size: 9px; font-weight: normal; text-rendering: geometricprecision; user-select: none;"><tspan>units</tspan><tspan> = 100</tspan></text></g><g class="node-argument"><rect rx="3" ry="3" x="3" y="45" width="127.28125" height="14" style="fill: transparent;"/><text xml:space="preserve" x="6" y="56" style="font-family: -apple-system, BlinkMacSystemFont, &quot;Segoe WPC&quot;, &quot;Segoe UI&quot;, Ubuntu, &quot;Droid Sans&quot;, sans-serif, &quot;PingFang SC&quot;; font-size: 9px; font-weight: normal; text-rendering: geometricprecision; user-select: none;"><tspan>zero_output_for_mask</tspan><tspan> = false</tspan></text></g><line class="node" x1="0" x2="133.28125" y1="0" y2="0" style="stroke: rgb(51, 51, 51); fill: none; stroke-width: 1px;"/></g><g class="node-item node-item-type node-item-type-activation" transform="translate(0,85)"><path d="M0,0h133.28125a0,0 0 0 1 0,0v23a0,0 0 0 1 0,0h-133.28125a0,0 0 0 1 0,0v-23a0,0 0 0 1 0,0z" style="stroke: rgb(0, 0, 0); fill: rgb(112, 41, 33); stroke-width: 0;"/><text x="6" y="16" style="font-family: -apple-system, BlinkMacSystemFont, &quot;Segoe WPC&quot;, &quot;Segoe UI&quot;, Ubuntu, &quot;Droid Sans&quot;, sans-serif, &quot;PingFang SC&quot;; font-size: 11px; text-rendering: geometricprecision; user-select: none; fill: rgb(255, 255, 255);">Activation</text></g><line class="node" x1="0" x2="133.28125" y1="85" y2="85" style="stroke: rgb(51, 51, 51); fill: none; stroke-width: 1px;"/><g class="node-argument-list" transform="translate(0,108)"><path d="M0,0h133.28125a0,0 0 0 1 0,0v15a5,5 0 0 1 -5,5h-123.28125a5,5 0 0 1 -5,-5v-15a0,0 0 0 1 0,0z" style="stroke: rgb(0, 0, 0); fill: rgb(255, 255, 255); stroke-width: 0;"/><g class="node-argument"><rect rx="3" ry="3" x="3" y="3" width="127.28125" height="14" style="fill: transparent;"/><text xml:space="preserve" x="6" y="14" style="font-family: -apple-system, BlinkMacSystemFont, &quot;Segoe WPC&quot;, &quot;Segoe UI&quot;, Ubuntu, &quot;Droid Sans&quot;, sans-serif, &quot;PingFang SC&quot;; font-size: 9px; font-weight: normal; text-rendering: geometricprecision; user-select: none;"><tspan>activation</tspan><tspan> = tanh</tspan></text></g><line class="node" x1="0" x2="133.28125" y1="0" y2="0" style="stroke: rgb(51, 51, 51); fill: none; stroke-width: 1px;"/></g><path class="node node-border" d="M5,0h123.28125a5,5 0 0 1 5,5v118a5,5 0 0 1 -5,5h-123.28125a5,5 0 0 1 -5,-5v-118a5,5 0 0 1 5,-5z" style="stroke: rgb(51, 51, 51); fill: none; stroke-width: 1px;"/></g><g id="node-name-dense" class="node graph-node" style="" transform="translate(261.4912109375,0)"><g class="node-item node-item-type node-item-type-layer" transform="translate(0,0)"><path d="M5,0h78.078125a5,5 0 0 1 5,5v18a0,0 0 0 1 0,0h-88.078125a0,0 0 0 1 0,0v-18a5,5 0 0 1 5,-5z" style="stroke: rgb(0, 0, 0); fill: rgb(51, 85, 136); stroke-width: 0;"/><text x="6" y="16" style="font-family: -apple-system, BlinkMacSystemFont, &quot;Segoe WPC&quot;, &quot;Segoe UI&quot;, Ubuntu, &quot;Droid Sans&quot;, sans-serif, &quot;PingFang SC&quot;; font-size: 11px; text-rendering: geometricprecision; user-select: none; fill: rgb(255, 255, 255);">Dense</text><title>dense</title></g><g class="node-argument-list" transform="translate(0,23)"><path d="M0,0h88.078125a0,0 0 0 1 0,0v62a0,0 0 0 1 0,0h-88.078125a0,0 0 0 1 0,0v-62a0,0 0 0 1 0,0z" style="stroke: rgb(0, 0, 0); fill: rgb(255, 255, 255); stroke-width: 0;"/><g class="node-argument"><rect rx="3" ry="3" x="3" y="3" width="82.078125" height="14" style="fill: transparent;"/><text xml:space="preserve" x="6" y="14" style="font-family: -apple-system, BlinkMacSystemFont, &quot;Segoe WPC&quot;, &quot;Segoe UI&quot;, Ubuntu, &quot;Droid Sans&quot;, sans-serif, &quot;PingFang SC&quot;; font-size: 9px; font-weight: normal; text-rendering: geometricprecision; user-select: none;"><tspan>activation</tspan><tspan> = relu</tspan></text></g><g class="node-argument"><rect rx="3" ry="3" x="3" y="17" width="82.078125" height="14" style="fill: transparent;"/><text xml:space="preserve" x="6" y="28" style="font-family: -apple-system, BlinkMacSystemFont, &quot;Segoe WPC&quot;, &quot;Segoe UI&quot;, Ubuntu, &quot;Droid Sans&quot;, sans-serif, &quot;PingFang SC&quot;; font-size: 9px; font-weight: normal; text-rendering: geometricprecision; user-select: none;"><tspan>bias_constraint</tspan><tspan> = </tspan></text></g><g class="node-argument"><rect rx="3" ry="3" x="3" y="31" width="82.078125" height="14" style="fill: transparent;"/><text xml:space="preserve" x="6" y="42" style="font-family: -apple-system, BlinkMacSystemFont, &quot;Segoe WPC&quot;, &quot;Segoe UI&quot;, Ubuntu, &quot;Droid Sans&quot;, sans-serif, &quot;PingFang SC&quot;; font-size: 9px; font-weight: normal; text-rendering: geometricprecision; user-select: none;"><tspan>kernel_constraint</tspan><tspan> = </tspan></text></g><g class="node-argument"><rect rx="3" ry="3" x="3" y="45" width="82.078125" height="14" style="fill: transparent;"/><text xml:space="preserve" x="6" y="56" style="font-family: -apple-system, BlinkMacSystemFont, &quot;Segoe WPC&quot;, &quot;Segoe UI&quot;, Ubuntu, &quot;Droid Sans&quot;, sans-serif, &quot;PingFang SC&quot;; font-size: 9px; font-weight: normal; text-rendering: geometricprecision; user-select: none;"><tspan>units</tspan><tspan> = 20</tspan></text></g><line class="node" x1="0" x2="88.078125" y1="0" y2="0" style="stroke: rgb(51, 51, 51); fill: none; stroke-width: 1px;"/></g><g class="node-item node-item-type node-item-type-activation" transform="translate(0,85)"><path d="M0,0h88.078125a0,0 0 0 1 0,0v23a0,0 0 0 1 0,0h-88.078125a0,0 0 0 1 0,0v-23a0,0 0 0 1 0,0z" style="stroke: rgb(0, 0, 0); fill: rgb(112, 41, 33); stroke-width: 0;"/><text x="6" y="16" style="font-family: -apple-system, BlinkMacSystemFont, &quot;Segoe WPC&quot;, &quot;Segoe UI&quot;, Ubuntu, &quot;Droid Sans&quot;, sans-serif, &quot;PingFang SC&quot;; font-size: 11px; text-rendering: geometricprecision; user-select: none; fill: rgb(255, 255, 255);">Activation</text></g><line class="node" x1="0" x2="88.078125" y1="85" y2="85" style="stroke: rgb(51, 51, 51); fill: none; stroke-width: 1px;"/><g class="node-argument-list" transform="translate(0,108)"><path d="M0,0h88.078125a0,0 0 0 1 0,0v15a5,5 0 0 1 -5,5h-78.078125a5,5 0 0 1 -5,-5v-15a0,0 0 0 1 0,0z" style="stroke: rgb(0, 0, 0); fill: rgb(255, 255, 255); stroke-width: 0;"/><g class="node-argument"><rect rx="3" ry="3" x="3" y="3" width="82.078125" height="14" style="fill: transparent;"/><text xml:space="preserve" x="6" y="14" style="font-family: -apple-system, BlinkMacSystemFont, &quot;Segoe WPC&quot;, &quot;Segoe UI&quot;, Ubuntu, &quot;Droid Sans&quot;, sans-serif, &quot;PingFang SC&quot;; font-size: 9px; font-weight: normal; text-rendering: geometricprecision; user-select: none;"><tspan>activation</tspan><tspan> = relu</tspan></text></g><line class="node" x1="0" x2="88.078125" y1="0" y2="0" style="stroke: rgb(51, 51, 51); fill: none; stroke-width: 1px;"/></g><path class="node node-border" d="M5,0h78.078125a5,5 0 0 1 5,5v118a5,5 0 0 1 -5,5h-78.078125a5,5 0 0 1 -5,-5v-118a5,5 0 0 1 5,-5z" style="stroke: rgb(51, 51, 51); fill: none; stroke-width: 1px;"/></g><g id="node-name-batch_normalization" class="node graph-node" style="" transform="translate(369.5693359375,28.5)"><g class="node-item node-item-type node-item-type-normalization" transform="translate(0,0)"><path d="M5,0h99.46875a5,5 0 0 1 5,5v18a0,0 0 0 1 0,0h-109.46875a0,0 0 0 1 0,0v-18a5,5 0 0 1 5,-5z" style="stroke: rgb(0, 0, 0); fill: rgb(51, 85, 68); stroke-width: 0;"/><text x="6" y="16" style="font-family: -apple-system, BlinkMacSystemFont, &quot;Segoe WPC&quot;, &quot;Segoe UI&quot;, Ubuntu, &quot;Droid Sans&quot;, sans-serif, &quot;PingFang SC&quot;; font-size: 11px; text-rendering: geometricprecision; user-select: none; fill: rgb(255, 255, 255);">BatchNormalization</text><title>batch_normalization</title></g><g class="node-argument-list" transform="translate(0,23)"><path d="M0,0h109.46875a0,0 0 0 1 0,0v43a5,5 0 0 1 -5,5h-99.46875a5,5 0 0 1 -5,-5v-43a0,0 0 0 1 0,0z" style="stroke: rgb(0, 0, 0); fill: rgb(255, 255, 255); stroke-width: 0;"/><g class="node-argument"><rect rx="3" ry="3" x="3" y="3" width="103.46875" height="14" style="fill: transparent;"/><text xml:space="preserve" x="6" y="14" style="font-family: -apple-system, BlinkMacSystemFont, &quot;Segoe WPC&quot;, &quot;Segoe UI&quot;, Ubuntu, &quot;Droid Sans&quot;, sans-serif, &quot;PingFang SC&quot;; font-size: 9px; font-weight: normal; text-rendering: geometricprecision; user-select: none;"><tspan>beta_constraint</tspan><tspan> = </tspan></text></g><g class="node-argument"><rect rx="3" ry="3" x="3" y="17" width="103.46875" height="14" style="fill: transparent;"/><text xml:space="preserve" x="6" y="28" style="font-family: -apple-system, BlinkMacSystemFont, &quot;Segoe WPC&quot;, &quot;Segoe UI&quot;, Ubuntu, &quot;Droid Sans&quot;, sans-serif, &quot;PingFang SC&quot;; font-size: 9px; font-weight: normal; text-rendering: geometricprecision; user-select: none;"><tspan>gamma_constraint</tspan><tspan> = </tspan></text></g><g class="node-argument"><rect rx="3" ry="3" x="3" y="31" width="103.46875" height="14" style="fill: transparent;"/><text xml:space="preserve" x="6" y="42" style="font-family: -apple-system, BlinkMacSystemFont, &quot;Segoe WPC&quot;, &quot;Segoe UI&quot;, Ubuntu, &quot;Droid Sans&quot;, sans-serif, &quot;PingFang SC&quot;; font-size: 9px; font-weight: normal; text-rendering: geometricprecision; user-select: none;"><tspan>synchronized</tspan><tspan> = false</tspan></text></g><line class="node" x1="0" x2="109.46875" y1="0" y2="0" style="stroke: rgb(51, 51, 51); fill: none; stroke-width: 1px;"/></g><path class="node node-border" d="M5,0h99.46875a5,5 0 0 1 5,5v61a5,5 0 0 1 -5,5h-99.46875a5,5 0 0 1 -5,-5v-61a5,5 0 0 1 5,-5z" style="stroke: rgb(51, 51, 51); fill: none; stroke-width: 1px;"/></g><g id="node-name-dropout" class="node graph-node" style="" transform="translate(499.0380859375,28.5)"><g class="node-item node-item-type node-item-type-dropout" transform="translate(0,0)"><path d="M5,0h65a5,5 0 0 1 5,5v18a0,0 0 0 1 0,0h-75a0,0 0 0 1 0,0v-18a5,5 0 0 1 5,-5z" style="stroke: rgb(0, 0, 0); fill: rgb(69, 71, 112); stroke-width: 0;"/><text x="6" y="16" style="font-family: -apple-system, BlinkMacSystemFont, &quot;Segoe WPC&quot;, &quot;Segoe UI&quot;, Ubuntu, &quot;Droid Sans&quot;, sans-serif, &quot;PingFang SC&quot;; font-size: 11px; text-rendering: geometricprecision; user-select: none; fill: rgb(255, 255, 255);">Dropout</text><title>dropout</title></g><g class="node-argument-list" transform="translate(0,23)"><path d="M0,0h75a0,0 0 0 1 0,0v43a5,5 0 0 1 -5,5h-65a5,5 0 0 1 -5,-5v-43a0,0 0 0 1 0,0z" style="stroke: rgb(0, 0, 0); fill: rgb(255, 255, 255); stroke-width: 0;"/><g class="node-argument"><rect rx="3" ry="3" x="3" y="3" width="69" height="14" style="fill: transparent;"/><text xml:space="preserve" x="6" y="14" style="font-family: -apple-system, BlinkMacSystemFont, &quot;Segoe WPC&quot;, &quot;Segoe UI&quot;, Ubuntu, &quot;Droid Sans&quot;, sans-serif, &quot;PingFang SC&quot;; font-size: 9px; font-weight: normal; text-rendering: geometricprecision; user-select: none;"><tspan>noise_shape</tspan><tspan> = </tspan></text></g><g class="node-argument"><rect rx="3" ry="3" x="3" y="17" width="69" height="14" style="fill: transparent;"/><text xml:space="preserve" x="6" y="28" style="font-family: -apple-system, BlinkMacSystemFont, &quot;Segoe WPC&quot;, &quot;Segoe UI&quot;, Ubuntu, &quot;Droid Sans&quot;, sans-serif, &quot;PingFang SC&quot;; font-size: 9px; font-weight: normal; text-rendering: geometricprecision; user-select: none;"><tspan>rate</tspan><tspan> = 0.3</tspan></text></g><g class="node-argument"><rect rx="3" ry="3" x="3" y="31" width="69" height="14" style="fill: transparent;"/><text xml:space="preserve" x="6" y="42" style="font-family: -apple-system, BlinkMacSystemFont, &quot;Segoe WPC&quot;, &quot;Segoe UI&quot;, Ubuntu, &quot;Droid Sans&quot;, sans-serif, &quot;PingFang SC&quot;; font-size: 9px; font-weight: normal; text-rendering: geometricprecision; user-select: none;"><tspan>seed</tspan><tspan> = </tspan></text></g><line class="node" x1="0" x2="75" y1="0" y2="0" style="stroke: rgb(51, 51, 51); fill: none; stroke-width: 1px;"/></g><path class="node node-border" d="M5,0h65a5,5 0 0 1 5,5v61a5,5 0 0 1 -5,5h-65a5,5 0 0 1 -5,-5v-61a5,5 0 0 1 5,-5z" style="stroke: rgb(51, 51, 51); fill: none; stroke-width: 1px;"/></g><g id="node-name-dense_1" class="node graph-node" style="" transform="translate(594.0380859375,0)"><g class="node-item node-item-type node-item-type-layer" transform="translate(0,0)"><path d="M5,0h78.078125a5,5 0 0 1 5,5v18a0,0 0 0 1 0,0h-88.078125a0,0 0 0 1 0,0v-18a5,5 0 0 1 5,-5z" style="stroke: rgb(0, 0, 0); fill: rgb(51, 85, 136); stroke-width: 0;"/><text x="6" y="16" style="font-family: -apple-system, BlinkMacSystemFont, &quot;Segoe WPC&quot;, &quot;Segoe UI&quot;, Ubuntu, &quot;Droid Sans&quot;, sans-serif, &quot;PingFang SC&quot;; font-size: 11px; text-rendering: geometricprecision; user-select: none; fill: rgb(255, 255, 255);">Dense</text><title>dense_1</title></g><g class="node-argument-list" transform="translate(0,23)"><path d="M0,0h88.078125a0,0 0 0 1 0,0v62a0,0 0 0 1 0,0h-88.078125a0,0 0 0 1 0,0v-62a0,0 0 0 1 0,0z" style="stroke: rgb(0, 0, 0); fill: rgb(255, 255, 255); stroke-width: 0;"/><g class="node-argument"><rect rx="3" ry="3" x="3" y="3" width="82.078125" height="14" style="fill: transparent;"/><text xml:space="preserve" x="6" y="14" style="font-family: -apple-system, BlinkMacSystemFont, &quot;Segoe WPC&quot;, &quot;Segoe UI&quot;, Ubuntu, &quot;Droid Sans&quot;, sans-serif, &quot;PingFang SC&quot;; font-size: 9px; font-weight: normal; text-rendering: geometricprecision; user-select: none;"><tspan>activation</tspan><tspan> = relu</tspan></text></g><g class="node-argument"><rect rx="3" ry="3" x="3" y="17" width="82.078125" height="14" style="fill: transparent;"/><text xml:space="preserve" x="6" y="28" style="font-family: -apple-system, BlinkMacSystemFont, &quot;Segoe WPC&quot;, &quot;Segoe UI&quot;, Ubuntu, &quot;Droid Sans&quot;, sans-serif, &quot;PingFang SC&quot;; font-size: 9px; font-weight: normal; text-rendering: geometricprecision; user-select: none;"><tspan>bias_constraint</tspan><tspan> = </tspan></text></g><g class="node-argument"><rect rx="3" ry="3" x="3" y="31" width="82.078125" height="14" style="fill: transparent;"/><text xml:space="preserve" x="6" y="42" style="font-family: -apple-system, BlinkMacSystemFont, &quot;Segoe WPC&quot;, &quot;Segoe UI&quot;, Ubuntu, &quot;Droid Sans&quot;, sans-serif, &quot;PingFang SC&quot;; font-size: 9px; font-weight: normal; text-rendering: geometricprecision; user-select: none;"><tspan>kernel_constraint</tspan><tspan> = </tspan></text></g><g class="node-argument"><rect rx="3" ry="3" x="3" y="45" width="82.078125" height="14" style="fill: transparent;"/><text xml:space="preserve" x="6" y="56" style="font-family: -apple-system, BlinkMacSystemFont, &quot;Segoe WPC&quot;, &quot;Segoe UI&quot;, Ubuntu, &quot;Droid Sans&quot;, sans-serif, &quot;PingFang SC&quot;; font-size: 9px; font-weight: normal; text-rendering: geometricprecision; user-select: none;"><tspan>units</tspan><tspan> = 10</tspan></text></g><line class="node" x1="0" x2="88.078125" y1="0" y2="0" style="stroke: rgb(51, 51, 51); fill: none; stroke-width: 1px;"/></g><g class="node-item node-item-type node-item-type-activation" transform="translate(0,85)"><path d="M0,0h88.078125a0,0 0 0 1 0,0v23a0,0 0 0 1 0,0h-88.078125a0,0 0 0 1 0,0v-23a0,0 0 0 1 0,0z" style="stroke: rgb(0, 0, 0); fill: rgb(112, 41, 33); stroke-width: 0;"/><text x="6" y="16" style="font-family: -apple-system, BlinkMacSystemFont, &quot;Segoe WPC&quot;, &quot;Segoe UI&quot;, Ubuntu, &quot;Droid Sans&quot;, sans-serif, &quot;PingFang SC&quot;; font-size: 11px; text-rendering: geometricprecision; user-select: none; fill: rgb(255, 255, 255);">Activation</text></g><line class="node" x1="0" x2="88.078125" y1="85" y2="85" style="stroke: rgb(51, 51, 51); fill: none; stroke-width: 1px;"/><g class="node-argument-list" transform="translate(0,108)"><path d="M0,0h88.078125a0,0 0 0 1 0,0v15a5,5 0 0 1 -5,5h-78.078125a5,5 0 0 1 -5,-5v-15a0,0 0 0 1 0,0z" style="stroke: rgb(0, 0, 0); fill: rgb(255, 255, 255); stroke-width: 0;"/><g class="node-argument"><rect rx="3" ry="3" x="3" y="3" width="82.078125" height="14" style="fill: transparent;"/><text xml:space="preserve" x="6" y="14" style="font-family: -apple-system, BlinkMacSystemFont, &quot;Segoe WPC&quot;, &quot;Segoe UI&quot;, Ubuntu, &quot;Droid Sans&quot;, sans-serif, &quot;PingFang SC&quot;; font-size: 9px; font-weight: normal; text-rendering: geometricprecision; user-select: none;"><tspan>activation</tspan><tspan> = relu</tspan></text></g><line class="node" x1="0" x2="88.078125" y1="0" y2="0" style="stroke: rgb(51, 51, 51); fill: none; stroke-width: 1px;"/></g><path class="node node-border" d="M5,0h78.078125a5,5 0 0 1 5,5v118a5,5 0 0 1 -5,5h-78.078125a5,5 0 0 1 -5,-5v-118a5,5 0 0 1 5,-5z" style="stroke: rgb(51, 51, 51); fill: none; stroke-width: 1px;"/></g><g id="node-name-dropout_1" class="node graph-node" style="" transform="translate(702.1162109375,28.5)"><g class="node-item node-item-type node-item-type-dropout" transform="translate(0,0)"><path d="M5,0h65a5,5 0 0 1 5,5v18a0,0 0 0 1 0,0h-75a0,0 0 0 1 0,0v-18a5,5 0 0 1 5,-5z" style="stroke: rgb(0, 0, 0); fill: rgb(69, 71, 112); stroke-width: 0;"/><text x="6" y="16" style="font-family: -apple-system, BlinkMacSystemFont, &quot;Segoe WPC&quot;, &quot;Segoe UI&quot;, Ubuntu, &quot;Droid Sans&quot;, sans-serif, &quot;PingFang SC&quot;; font-size: 11px; text-rendering: geometricprecision; user-select: none; fill: rgb(255, 255, 255);">Dropout</text><title>dropout_1</title></g><g class="node-argument-list" transform="translate(0,23)"><path d="M0,0h75a0,0 0 0 1 0,0v43a5,5 0 0 1 -5,5h-65a5,5 0 0 1 -5,-5v-43a0,0 0 0 1 0,0z" style="stroke: rgb(0, 0, 0); fill: rgb(255, 255, 255); stroke-width: 0;"/><g class="node-argument"><rect rx="3" ry="3" x="3" y="3" width="69" height="14" style="fill: transparent;"/><text xml:space="preserve" x="6" y="14" style="font-family: -apple-system, BlinkMacSystemFont, &quot;Segoe WPC&quot;, &quot;Segoe UI&quot;, Ubuntu, &quot;Droid Sans&quot;, sans-serif, &quot;PingFang SC&quot;; font-size: 9px; font-weight: normal; text-rendering: geometricprecision; user-select: none;"><tspan>noise_shape</tspan><tspan> = </tspan></text></g><g class="node-argument"><rect rx="3" ry="3" x="3" y="17" width="69" height="14" style="fill: transparent;"/><text xml:space="preserve" x="6" y="28" style="font-family: -apple-system, BlinkMacSystemFont, &quot;Segoe WPC&quot;, &quot;Segoe UI&quot;, Ubuntu, &quot;Droid Sans&quot;, sans-serif, &quot;PingFang SC&quot;; font-size: 9px; font-weight: normal; text-rendering: geometricprecision; user-select: none;"><tspan>rate</tspan><tspan> = 0.3</tspan></text></g><g class="node-argument"><rect rx="3" ry="3" x="3" y="31" width="69" height="14" style="fill: transparent;"/><text xml:space="preserve" x="6" y="42" style="font-family: -apple-system, BlinkMacSystemFont, &quot;Segoe WPC&quot;, &quot;Segoe UI&quot;, Ubuntu, &quot;Droid Sans&quot;, sans-serif, &quot;PingFang SC&quot;; font-size: 9px; font-weight: normal; text-rendering: geometricprecision; user-select: none;"><tspan>seed</tspan><tspan> = </tspan></text></g><line class="node" x1="0" x2="75" y1="0" y2="0" style="stroke: rgb(51, 51, 51); fill: none; stroke-width: 1px;"/></g><path class="node node-border" d="M5,0h65a5,5 0 0 1 5,5v61a5,5 0 0 1 -5,5h-65a5,5 0 0 1 -5,-5v-61a5,5 0 0 1 5,-5z" style="stroke: rgb(51, 51, 51); fill: none; stroke-width: 1px;"/></g><g id="node-name-logits" class="node graph-node" style="" transform="translate(797.1162109375,28.5)"><g class="node-item node-item-type node-item-type-layer" transform="translate(0,0)"><path d="M5,0h78.078125a5,5 0 0 1 5,5v18a0,0 0 0 1 0,0h-88.078125a0,0 0 0 1 0,0v-18a5,5 0 0 1 5,-5z" style="stroke: rgb(0, 0, 0); fill: rgb(51, 85, 136); stroke-width: 0;"/><text x="6" y="16" style="font-family: -apple-system, BlinkMacSystemFont, &quot;Segoe WPC&quot;, &quot;Segoe UI&quot;, Ubuntu, &quot;Droid Sans&quot;, sans-serif, &quot;PingFang SC&quot;; font-size: 11px; text-rendering: geometricprecision; user-select: none; fill: rgb(255, 255, 255);">Dense</text><title>logits</title></g><g class="node-argument-list" transform="translate(0,23)"><path d="M0,0h88.078125a0,0 0 0 1 0,0v43a5,5 0 0 1 -5,5h-78.078125a5,5 0 0 1 -5,-5v-43a0,0 0 0 1 0,0z" style="stroke: rgb(0, 0, 0); fill: rgb(255, 255, 255); stroke-width: 0;"/><g class="node-argument"><rect rx="3" ry="3" x="3" y="3" width="82.078125" height="14" style="fill: transparent;"/><text xml:space="preserve" x="6" y="14" style="font-family: -apple-system, BlinkMacSystemFont, &quot;Segoe WPC&quot;, &quot;Segoe UI&quot;, Ubuntu, &quot;Droid Sans&quot;, sans-serif, &quot;PingFang SC&quot;; font-size: 9px; font-weight: normal; text-rendering: geometricprecision; user-select: none;"><tspan>bias_constraint</tspan><tspan> = </tspan></text></g><g class="node-argument"><rect rx="3" ry="3" x="3" y="17" width="82.078125" height="14" style="fill: transparent;"/><text xml:space="preserve" x="6" y="28" style="font-family: -apple-system, BlinkMacSystemFont, &quot;Segoe WPC&quot;, &quot;Segoe UI&quot;, Ubuntu, &quot;Droid Sans&quot;, sans-serif, &quot;PingFang SC&quot;; font-size: 9px; font-weight: normal; text-rendering: geometricprecision; user-select: none;"><tspan>kernel_constraint</tspan><tspan> = </tspan></text></g><g class="node-argument"><rect rx="3" ry="3" x="3" y="31" width="82.078125" height="14" style="fill: transparent;"/><text xml:space="preserve" x="6" y="42" style="font-family: -apple-system, BlinkMacSystemFont, &quot;Segoe WPC&quot;, &quot;Segoe UI&quot;, Ubuntu, &quot;Droid Sans&quot;, sans-serif, &quot;PingFang SC&quot;; font-size: 9px; font-weight: normal; text-rendering: geometricprecision; user-select: none;"><tspan>units</tspan><tspan> = 2</tspan></text></g><line class="node" x1="0" x2="88.078125" y1="0" y2="0" style="stroke: rgb(51, 51, 51); fill: none; stroke-width: 1px;"/></g><path class="node node-border" d="M5,0h78.078125a5,5 0 0 1 5,5v61a5,5 0 0 1 -5,5h-78.078125a5,5 0 0 1 -5,-5v-61a5,5 0 0 1 5,-5z" style="stroke: rgb(51, 51, 51); fill: none; stroke-width: 1px;"/></g><g id="node-name-softmax_temperature" class="node graph-node" style="" transform="translate(905.1943359375,42.5)"><g class="node-item node-item-type" transform="translate(0,0)"><path d="M5,0h104.91259765625a5,5 0 0 1 5,5v18a0,0 0 0 1 0,0h-114.91259765625a0,0 0 0 1 0,0v-18a5,5 0 0 1 5,-5z" style="stroke: rgb(0, 0, 0); fill: rgb(0, 0, 0); stroke-width: 0;"/><text x="6" y="16" style="font-family: -apple-system, BlinkMacSystemFont, &quot;Segoe WPC&quot;, &quot;Segoe UI&quot;, Ubuntu, &quot;Droid Sans&quot;, sans-serif, &quot;PingFang SC&quot;; font-size: 11px; text-rendering: geometricprecision; user-select: none; fill: rgb(255, 255, 255);">SoftmaxTemperature</text><title>softmax_temperature</title></g><g class="node-argument-list" transform="translate(0,23)"><path d="M0,0h114.91259765625a0,0 0 0 1 0,0v15a5,5 0 0 1 -5,5h-104.91259765625a5,5 0 0 1 -5,-5v-15a0,0 0 0 1 0,0z" style="stroke: rgb(0, 0, 0); fill: rgb(255, 255, 255); stroke-width: 0;"/><g class="node-argument"><rect rx="3" ry="3" x="3" y="3" width="108.91259765625" height="14" style="fill: transparent;"/><text xml:space="preserve" x="6" y="14" style="font-family: -apple-system, BlinkMacSystemFont, &quot;Segoe WPC&quot;, &quot;Segoe UI&quot;, Ubuntu, &quot;Droid Sans&quot;, sans-serif, &quot;PingFang SC&quot;; font-size: 9px; font-weight: normal; text-rendering: geometricprecision; user-select: none;"><tspan>temperature</tspan><tspan> = 1</tspan></text></g><line class="node" x1="0" x2="114.91259765625" y1="0" y2="0" style="stroke: rgb(51, 51, 51); fill: none; stroke-width: 1px;"/></g><path class="node node-border" d="M5,0h104.91259765625a5,5 0 0 1 5,5v33a5,5 0 0 1 -5,5h-104.91259765625a5,5 0 0 1 -5,-5v-33a5,5 0 0 1 5,-5z" style="stroke: rgb(51, 51, 51); fill: none; stroke-width: 1px;"/></g><g class="node" style="" transform="translate(1040.10693359375,52.5)"><g class="node-item graph-item-output" transform="translate(0,0)"><path d="M5,0h107.34033203125a5,5 0 0 1 5,5v13a5,5 0 0 1 -5,5h-107.34033203125a5,5 0 0 1 -5,-5v-13a5,5 0 0 1 5,-5z" style="stroke: rgb(0, 0, 0); fill: rgb(238, 238, 238); stroke-width: 0;"/><text x="6" y="16" style="font-family: -apple-system, BlinkMacSystemFont, &quot;Segoe WPC&quot;, &quot;Segoe UI&quot;, Ubuntu, &quot;Droid Sans&quot;, sans-serif, &quot;PingFang SC&quot;; font-size: 11px; text-rendering: geometricprecision; user-select: none;">softmax_temperature</text></g><path class="node node-border" d="M5,0h107.34033203125a5,5 0 0 1 5,5v13a5,5 0 0 1 -5,5h-107.34033203125a5,5 0 0 1 -5,-5v-13a5,5 0 0 1 5,-5z" style="stroke: rgb(51, 51, 51); fill: none; stroke-width: 1px;"/></g></g></g></svg>